<svg version="1.1" xmlns="http://www.w3.org/2000/svg" xmlns:xlink="http://www.w3.org/1999/xlink"  x="0px" y="0px" viewBox="0 0 100 100" enable-background="new 0 0 100 100" xml:space="preserve">
    <path id="svg-logo" fill="#ffffff" d="M94.361,58.33l-43-48c-0.48-0.53-1.16-0.84-1.871-0.83c-0.72,0-1.4,0.31-1.87,0.85l-42,48c-0.48,0.551-0.69,1.271-0.6,1.98   c0.1,0.71,0.49,1.35,1.09,1.75l42,28c0.42,0.28,0.91,0.42,1.39,0.42c0.47,0,0.951-0.13,1.361-0.41l43-28   c0.619-0.39,1.02-1.04,1.119-1.76C95.07,59.6,94.85,58.88,94.361,58.33z M48.5,84.33L11.26,59.5L48.5,16.94V84.33z M50.5,84.37   V16.86L88.691,59.5L50.5,84.37z"></path>
</svg>